PathFileType	3	(X/Y/Z)	F:\ViconData\AntennenMessung\Messung1\Session1\ID17.trc
DataRate	CameraRate	NumFrames	NumMarkers	Units	OrigDataRate	OrigDataStartFrame	OrigNumFrames
120.0	120.0	4	70	mm	120.0	331	880	
Frame#	Time	Ashort			Along			Atop			A4			Bshort			Blong			Btop			B4			Cshort			Clong			Ctop			C4			Dshort			Dlong			Dtop			D4			Eshort			Elong			Etop			E4			Fshort			Flong			Ftop			F4			Gshort			Glong			Gtop			G4			Hshort			Hlong			Htop			H4			I1			I2			I3			I4			I5			WandAshort			WandAlong			WandAtop			WandA4			WandA15			WandBshort			WandB4			WandB5			WandBtop			WandBlong			WandCshort			WandClong			WandCtop			WandC4			WandC5			Acenter			Aantenna			Bcenter			Bantenna			Ccenter			Cantenna			Dcenter			Dantenna			Ecenter			Eantenna			Fcenter			Fantenna			Gcenter			Gantenna			Hcenter			Hantenna			Icenter			Iantenna			
		X1	Y1	Z1	X2	Y2	Z2	X3	Y3	Z3	X4	Y4	Z4	X5	Y5	Z5	X6	Y6	Z6	X7	Y7	Z7	X8	Y8	Z8	X9	Y9	Z9	X10	Y10	Z10	X11	Y11	Z11	X12	Y12	Z12	X13	Y13	Z13	X14	Y14	Z14	X15	Y15	Z15	X16	Y16	Z16	X17	Y17	Z17	X18	Y18	Z18	X19	Y19	Z19	X20	Y20	Z20	X21	Y21	Z21	X22	Y22	Z22	X23	Y23	Z23	X24	Y24	Z24	X25	Y25	Z25	X26	Y26	Z26	X27	Y27	Z27	X28	Y28	Z28	X29	Y29	Z29	X30	Y30	Z30	X31	Y31	Z31	X32	Y32	Z32	X33	Y33	Z33	X34	Y34	Z34	X35	Y35	Z35	X36	Y36	Z36	X37	Y37	Z37	X38	Y38	Z38	X39	Y39	Z39	X40	Y40	Z40	X41	Y41	Z41	X42	Y42	Z42	X43	Y43	Z43	X44	Y44	Z44	X45	Y45	Z45	X46	Y46	Z46	X47	Y47	Z47	X48	Y48	Z48	X49	Y49	Z49	X50	Y50	Z50	X51	Y51	Z51	X52	Y52	Z52	X53	Y53	Z53	X54	Y54	Z54	X55	Y55	Z55	X56	Y56	Z56	X57	Y57	Z57	X58	Y58	Z58	X59	Y59	Z59	X60	Y60	Z60	X61	Y61	Z61	X62	Y62	Z62	X63	Y63	Z63	X64	Y64	Z64	X65	Y65	Z65	X66	Y66	Z66	X67	Y67	Z67	X68	Y68	Z68	X69	Y69	Z69	X70	Y70	Z70	
331	2.75	-1038.2006	214.4664	-1644.2081	-1109.3967	204.15685	-1599.3691	-1063.7581	173.07204	-1625.7311	-1054.1882	262.16666	-1634.9597	-1352.8099	234.88071	1003.7126	-1281.3998	227.26413	1052.3806	-1322.8232	193.69879	1021.0187	-1284.7308	287.77414	1052.8878	813.95959	187.53551	1209.4705	892.21057	178.51585	1179.1387	844.42181	145.53539	1198.2609	860.9455	292.4679	1168.2017	1115.7463	209.82703	-1401.7959	1056.2126	193.96637	-1460.3154	1095.1935	162.32222	-1424.0179	1069.8318	238.69565	-1425.833	-1204.5848	1685.9961	-1563.0591	-1129.1649	1688.2678	-1605.9976	-1173.1738	1724.3961	-1581.9626	-1134.0621	1580.9641	-1603.859	-1239.4968	1698.9735	1119.444	-1309.2236	1698.5927	1071.8696	-1270.3331	1736.1666	1096.854	-1245.5326	1592.6929	1110.6793	988.88428	1664.2878	1162.192	955.7204	1702.3689	1181.079	922.90961	1661.9358	1215.0708	939.75702	1659.4618	1159.8545	999.0249	1668.3921	-1579.4349	1058.8433	1670.1329	-1518.6327	1024.9607	1708.0016	-1551.1326	1059.2435	1672.099	-1585.4492	-184.53574	167.24094	-294.0123	-175.22043	174.71652	-377.53207	-180.13289	132.55013	-335.34726	-211.85709	170.27098	-333.14117	-133.09297	168.93538	-326.19299																																														-1068.6661	210.05482	-1625.021	-1073.7959	248.70885	-1624.2789	-1321.5238	231.54375	1025.0348	-1320.193	270.30341	1029.1479	848.03534	183.60773	1196.2618	851.71539	222.38031	1194.2262	1088.7228	202.62755	-1428.359	1082.5756	240.91856	-1432.4832	-1171.8838	1686.981	-1581.6765	-1170.54	1648.0052	-1581.3783	-1270.9158	1698.8019	1098.007	-1271.5233	1659.8251	1099.2098	953.54803	1704.8633	1182.3162	972.79468	1731.8297	1161.7402	1026.4861	1669.1912	-1551.522	1028.0177	1630.2231	-1551.9132	-180.30357	170.63725	-331.95724	-180.47766	209.48329	-328.49966
332	2.7583333	-1038.2164	214.43515	-1644.1741	-1109.3859	204.0874	-1599.3351	-1063.6896	173.11725	-1625.7714	-1054.1814	262.15277	-1634.9631	-1352.9192	234.80377	1003.7903	-1281.3414	227.16966	1052.3705	-1322.804	193.73576	1020.9982	-1284.5454	287.81204	1052.7439	814.05499	187.58511	1209.4905	892.1286	178.45146	1179.1681	844.45758	145.52197	1198.2628	860.883	292.50949	1168.2623	1115.713	209.55965	-1401.6379	1056.2599	193.9935	-1460.317	1095.2141	162.38695	-1424.0216	1069.8071	238.71442	-1425.8496	-1204.6077	1686.0104	-1563.0518	-1129.1615	1688.2795	-1606.0032	-1173.1783	1724.4181	-1581.9695	-1134.0581	1580.9738	-1603.8695	-1239.2112	1698.5608	1119.3228	-1309.1512	1698.4666	1071.8217	-1270.3518	1736.1965	1096.8721	-1245.5562	1592.7506	1110.6893	988.83875	1664.2085	1162.1938	955.84009	1702.2454	1181.0682	922.82739	1662.0836	1215.2057	939.75726	1659.4187	1159.8594	999.01355	1668.4288	-1579.4738	1058.7312	1669.9607	-1518.6537	1024.9563	1707.9993	-1551.1259	1059.238	1672.1033	-1585.4526	-184.53793	167.26335	-294.01117	-175.21109	174.70761	-377.53049	-180.07684	132.5361	-335.36401	-211.8271	170.20444	-333.10568	-133.12633	168.89508	-326.19897																																														-1068.5919	210.01866	-1625.0365	-1073.7269	248.67148	-1624.2667	-1321.551	231.45819	1025.08	-1320.2638	270.21075	1029.2732	848.13239	183.59848	1196.2554	851.87384	222.36475	1194.2115	1088.8159	202.51743	-1428.1846	1082.7075	240.83047	-1432.1592	-1171.8875	1686.9943	-1581.6792	-1170.5431	1648.0187	-1581.377	-1270.9216	1698.5181	1097.786	-1271.5112	1659.5339	1098.7317	953.48871	1704.9557	1182.4131	972.75189	1731.8904	1161.8109	1026.4086	1669.1315	-1551.5728	1027.8647	1630.1613	-1552.0209	-180.29654	170.64861	-331.99146	-180.52051	209.49617	-328.55392
333	2.7666667	-1038.2217	214.4895	-1644.2051	-1109.3801	204.11435	-1599.3846	-1063.6897	173.1136	-1625.7758	-1054.2109	262.18613	-1634.9811	-1353.0121	234.71361	1003.8656	-1281.3749	227.24832	1052.3434	-1322.8644	193.63805	1021.0587	-1284.6898	287.65607	1052.8884	813.97601	187.57098	1209.4717	892.146	178.46016	1179.2076	844.43262	145.58017	1198.2357	860.86176	292.53983	1167.9529	1115.7344	209.84349	-1401.7982	1056.1382	193.87277	-1460.2969	1095.0272	162.302	-1424.0098	1069.7871	238.66377	-1425.8719	-1204.5989	1686.0211	-1563.0455	-1129.1709	1688.4175	-1606.5701	-1173.1782	1724.3998	-1581.9598	-1134.0713	1580.9653	-1603.8563	-1239.4249	1698.8612	1119.4091	-1309.2604	1698.6128	1071.8745	-1270.3353	1736.1588	1096.8518	-1245.4061	1592.6189	1110.6693	988.83588	1664.2188	1162.2072	955.79681	1702.306	1181.1227	922.74268	1661.9901	1215.0316	939.80817	1659.4086	1159.8953	999.04535	1668.3999	-1579.4368	1058.8391	1670.1261	-1518.6387	1024.9531	1708.0023	-1551.1223	1059.2426	1672.0981	-1585.4474	-184.54105	167.23955	-294.03265	-175.21605	174.71196	-377.53183	-180.07387	132.5639	-335.35623	-211.80699	170.23503	-333.16284	-133.12181	168.9035	-326.18378																																														-1068.6229	210.05688	-1625.0563	-1073.7841	248.70654	-1624.3035	-1321.6511	231.44551	1025.0879	-1320.4072	270.20615	1029.2186	848.09857	183.59395	1196.261	851.83728	222.36205	1194.2469	1088.5887	202.56895	-1428.4438	1082.467	240.85411	-1432.6597	-1171.949	1687.0583	-1581.8856	-1170.666	1648.0795	-1581.8082	-1270.9502	1698.749	1097.9508	-1271.5908	1659.7711	1099.0959	953.54138	1704.906	1182.4138	972.88898	1731.8655	1161.9236	1026.4896	1669.1921	-1551.5315	1028.0322	1630.2249	-1551.9424	-180.30373	170.63501	-331.97488	-180.53827	209.48138	-328.52469
334	2.775	-1038.2104	214.50317	-1644.2229	-1109.3857	204.08789	-1599.3691	-1063.6859	173.14238	-1625.755	-1054.1942	262.19437	-1634.9718	-1352.9183	234.82094	1003.8072	-1281.3005	227.22052	1052.309	-1322.8003	193.68605	1021.0196	-1284.6648	287.80756	1052.8185	813.99615	187.6272	1209.4036	892.14532	178.45297	1179.245	844.39722	145.53357	1198.2963	860.95166	292.51379	1168.4187	1115.7391	209.84348	-1401.8182	1056.272	194.02129	-1460.3088	1095.1093	162.37035	-1424.0475	1069.795	238.66281	-1425.8536	-1204.5199	1685.9207	-1563.2197	-1129.1517	1688.2546	-1605.9937	-1173.2166	1724.3129	-1581.8546	-1134.0581	1580.9561	-1603.8562	-1239.4249	1698.8622	1119.4204	-1309.2471	1698.6265	1071.8879	-1270.3208	1736.1361	1096.842	-1245.5393	1592.7516	1110.6854	988.86658	1664.2345	1162.2175	955.80719	1702.3115	1181.071	922.81976	1661.9319	1215.0586	939.79559	1659.4563	1159.8729	999.02472	1668.4196	-1579.4559	1058.7487	1669.9674	-1518.6498	1024.955	1707.991	-1551.1193	1059.2378	1672.0951	-1585.4436	-184.53352	167.24698	-294.00568	-175.23416	174.72691	-377.52972	-180.11061	132.49362	-335.32635	-211.85431	170.23354	-333.1937	-133.11464	168.93182	-326.1925																																														-1068.6401	210.05028	-1625.0464	-1073.8279	248.69659	-1624.3044	-1321.5283	231.48965	1025.0654	-1320.2242	270.24652	1029.2133	848.07947	183.62601	1196.2505	851.8266	222.38971	1194.1685	1088.6934	202.64751	-1428.4198	1082.5933	240.9425	-1432.577	-1171.9678	1686.9286	-1581.6938	-1170.6658	1647.9508	-1581.5265	-1270.9534	1698.7556	1097.9569	-1271.6133	1659.7786	1099.1193	953.59662	1704.8574	1182.3317	972.91388	1731.8	1161.7906	1026.4175	1669.1295	-1551.5667	1027.8844	1630.1597	-1552.0154	-180.31087	170.64346	-331.93213	-180.5148	209.48949	-328.47601
